<?xml version="1.0" encoding="utf-8"?>
<!-- Generator: Adobe Illustrator 27.5.0, SVG Export Plug-In . SVG Version: 6.00 Build 0)  -->
<svg version="1.1" id="BACKGROUND" xmlns="http://www.w3.org/2000/svg" xmlns:xlink="http://www.w3.org/1999/xlink" x="0px" y="0px"
	 viewBox="0 0 750 500" style="enable-background:new 0 0 750 500;" xml:space="preserve">
<g>
	<radialGradient id="SVGID_1_" cx="371.3333" cy="313" r="410.0045" gradientUnits="userSpaceOnUse">
		<stop  offset="0" style="stop-color:#FFEB3B"/>
		<stop  offset="0.2551" style="stop-color:#FFCF2E"/>
		<stop  offset="0.8029" style="stop-color:#FF880D"/>
		<stop  offset="1" style="stop-color:#FF6D00"/>
	</radialGradient>
	<rect style="fill:url(#SVGID_1_);" width="750" height="500"/>
	
		<linearGradient id="SVGID_00000070081742879017076160000010612544381729632910_" gradientUnits="userSpaceOnUse" x1="375" y1="480.7915" x2="375" y2="108.4834">
		<stop  offset="0" style="stop-color:#FFE082"/>
		<stop  offset="1" style="stop-color:#FFF59D"/>
	</linearGradient>
	
		<circle style="opacity:0.25;fill:url(#SVGID_00000070081742879017076160000010612544381729632910_);" cx="375" cy="294.637" r="186.154"/>
	
		<linearGradient id="SVGID_00000145055552047905209670000008658131419661300619_" gradientUnits="userSpaceOnUse" x1="375" y1="437.6374" x2="375" y2="151.6374">
		<stop  offset="0" style="stop-color:#FFE082"/>
		<stop  offset="1" style="stop-color:#FFF59D"/>
	</linearGradient>
	<circle style="fill:url(#SVGID_00000145055552047905209670000008658131419661300619_);" cx="375" cy="294.637" r="143"/>
	<g>
		<g>
			<path style="fill:#3E2723;" d="M516.164,185.125c0,0-7.069-3.169-10.482,0c0,0,6.582-0.975,10.482,3.9
				c3.9-4.876,10.482-3.9,10.482-3.9C523.233,181.956,516.164,185.125,516.164,185.125z"/>
			<path style="fill:#3E2723;" d="M366.696,137.152c0,0-8.892-3.986-13.184,0c0,0,8.279-1.227,13.184,4.906
				c4.906-6.132,13.185-4.906,13.185-4.906C375.588,133.166,366.696,137.152,366.696,137.152z"/>
			<path style="fill:#3E2723;" d="M641.481,229.075c0,0-11.808-5.293-17.508,0c0,0,10.993-1.629,17.508,6.514
				c6.514-8.143,17.508-6.514,17.508-6.514C653.288,223.782,641.481,229.075,641.481,229.075z"/>
			<path style="fill:#3E2723;" d="M546.376,165.393c0,0-4.154-1.862-6.16,0c0,0,3.868-0.573,6.16,2.292
				c2.292-2.865,6.16-2.292,6.16-2.292C550.531,163.531,546.376,165.393,546.376,165.393z"/>
			<path style="fill:#3E2723;" d="M448.484,189.798c0,0-3.88-1.739-5.753,0c0,0,3.612-0.535,5.753,2.141
				c2.141-2.676,5.753-2.141,5.753-2.141C452.364,188.059,448.484,189.798,448.484,189.798z"/>
			<path style="fill:#3E2723;" d="M407.173,125.667c0,0-4.155-1.862-6.16,0c0,0,3.868-0.573,6.16,2.292
				c2.292-2.865,6.16-2.292,6.16-2.292C411.328,123.804,407.173,125.667,407.173,125.667z"/>
		</g>
	</g>
	<g>
		<defs>
			<rect id="SVGID_00000125565720749035466690000013835129720287785859_" width="750" height="500"/>
		</defs>
		<clipPath id="SVGID_00000162318514115274178250000002506558290871293836_">
			<use xlink:href="#SVGID_00000125565720749035466690000013835129720287785859_"  style="overflow:visible;"/>
		</clipPath>
		<g style="opacity:0.45;clip-path:url(#SVGID_00000162318514115274178250000002506558290871293836_);">
			<path style="opacity:0.43;fill:#FFFFFF;" d="M805.333,261.65c0,0-21.667,1.333-47.667,5.333s-79.333,1.333-100,4.667
				c-20.667,3.333-25.333,11.333-47.333,14c-22,2.667-65.333,6-76,14.667c-10.667,8.667-18,16.667-36.667,18.667s-40,1.333-48,6.667
				c-8,5.333-31.494,2-25.414,7c6.08,5,59.414-2.945,73.414,3.027S493,351.677,480,354.33c-13,2.653-71.667-5.986-89.667,0
				c-18,5.986-62.333,18.67-87,18.003c-24.667-0.667-12.068,14.894-29.686,20.667s-66.108,3.415-84.667,7.943
				s-45.333,3.333-45.333,3.333l-1.981,27.04h663.667V261.65z"/>
			<path style="opacity:0.58;fill:#FFFFFF;" d="M754.667,124.233c0,0-71.167,0-96.667,0s-42,5-53.5,3.5s-34.827-0.439-37.163,0.281
				c-2.337,0.719-33.837,0-33.837,0s20-11.781,30-11.781s45-2.5,62.5-6s22.5-15.5,42.5-13.5s27.5,7.5,48,4s38.167-7.5,38.167-7.5
				V124.233z"/>
			<path style="opacity:0.58;fill:#FFFFFF;" d="M-114.906,305.45c0,0,71.167,0,96.667,0s42,5,53.5,3.5s34.827-0.439,37.163,0.281
				c2.337,0.719,33.837,0,33.837,0s-20-11.781-30-11.781s-45-2.5-62.5-6s-22.5-15.5-42.5-13.5s-27.5,7.5-48,4
				s-38.167-7.5-38.167-7.5V305.45z"/>
			<path style="opacity:0.58;fill:#FFFFFF;" d="M483.179,267.664c0,0,40-2,51.5,0s26.5,0.5,34.5,0s23.5-0.889,23.5-0.889
				s-7.5-3.611-23.5-6.611s-26-7-38.5-5S483.179,267.664,483.179,267.664z"/>
			<path style="opacity:0.58;fill:#FFFFFF;" d="M-32.148,183.999c0,0,84.856,2.912,105.239,2.496
				c20.382-0.416,38.269-2.912,60.315-2.496c22.046,0.416,41.18,1.658,54.491,1.245c13.311-0.413,30.365-1.292,30.365-1.292
				s-20.382-4.113-33.277-6.193c-12.895-2.08-21.214-0.832-33.693-5.408c-12.479-4.576-11.231-7.071-26.206-6.24
				c-14.975,0.832-10.815,4.16-26.621,2.08c-15.807-2.08-25.374-9.567-39.101-6.239c-13.727,3.328-21.63,7.903-39.516,8.319
				C1.961,170.689-22.581,176.512-32.148,183.999z"/>
			<path style="opacity:0.58;fill:#FFFFFF;" d="M321.88,57.577c0,0,68,2.333,84.333,2c16.333-0.333,30.667-2.333,48.333-2
				c17.667,0.333,33,1.329,43.667,0.998c10.667-0.331,24.333-1.035,24.333-1.035s-16.333-3.296-26.667-4.963
				c-10.333-1.667-17-0.667-27-4.333c-10-3.667-9-5.667-21-5c-12,0.667-8.667,3.333-21.333,1.667
				c-12.667-1.667-20.333-7.667-31.333-5c-11,2.667-17.333,6.333-31.667,6.667C349.213,46.91,329.546,51.577,321.88,57.577z"/>
		</g>
	</g>
	<g>
		<defs>
			<rect id="SVGID_00000151512606784377490920000011455983772300181669_" width="750" height="500"/>
		</defs>
		<clipPath id="SVGID_00000150805792396032673280000006665662645603882923_">
			<use xlink:href="#SVGID_00000151512606784377490920000011455983772300181669_"  style="overflow:visible;"/>
		</clipPath>
		<g style="clip-path:url(#SVGID_00000150805792396032673280000006665662645603882923_);">
			
				<linearGradient id="SVGID_00000126298130503406634030000003507543688974242740_" gradientUnits="userSpaceOnUse" x1="67.36" y1="454" x2="777.078" y2="454">
				<stop  offset="0" style="stop-color:#FBC02D"/>
				<stop  offset="1" style="stop-color:#BF360C"/>
			</linearGradient>
			<path style="fill:url(#SVGID_00000126298130503406634030000003507543688974242740_);" d="M765.15,296.642
				c-15.904,2.389-38.766,1.194-66.598,8.958c-27.832,7.763-82.502,29.859-102.382,29.859c-19.88,0-63.616,7.763-83.496,5.375
				c-19.88-2.389-49.7,14.93-72.562,19.707c-22.862,4.777-62.622,19.707-94.43,16.124c-31.808-3.583-28.826,2.294-85.484,0.549
				c-56.658-1.744-94.43,8.408-132.202,10.797C90.222,390.4,67.36,398.761,67.36,398.761v212.597h709.718L765.15,296.642z"/>
			
				<linearGradient id="SVGID_00000008128647016286403020000013118994983506260391_" gradientUnits="userSpaceOnUse" x1="-86.4842" y1="492.6815" x2="783.2682" y2="492.6815">
				<stop  offset="0" style="stop-color:#BF360C"/>
				<stop  offset="1" style="stop-color:#FBC02D"/>
			</linearGradient>
			<path style="fill:url(#SVGID_00000008128647016286403020000013118994983506260391_);" d="M-68.592,394.445
				c42.742-10.749,60.634-10.749,82.502-10.749s10.934,0,57.652,5.375c46.718,5.375,96.418,10.152,150.094,11.346
				c53.676,1.194,179.915,4.778,210.729,0c30.814-4.777,89.46,13.138,127.232,7.166c37.772-5.972,196.813,0,223.651,13.138v180.947
				H-86.484L-68.592,394.445z"/>
			
				<linearGradient id="SVGID_00000170277771410000571120000005486414522960541622_" gradientUnits="userSpaceOnUse" x1="306.0797" y1="384.4737" x2="859.1965" y2="384.4737">
				<stop  offset="0" style="stop-color:#FBC02D"/>
				<stop  offset="1" style="stop-color:#BF360C"/>
			</linearGradient>
			<path style="fill:url(#SVGID_00000170277771410000571120000005486414522960541622_);" d="M853.232,348.199
				c-22.862-8.958-24.85-14.332-39.76-8.958c-14.91,5.375-53.676-2.389-79.52,8.958c-25.844,11.346-51.688,4.18-78.526,15.527
				c-26.838,11.346-74.55,31.054-95.424,28.665c-20.874-2.389-99.4,15.527-116.298,16.124c-16.898,0.597-22.862-1.792-50.694,3.583
				c-27.832,5.375-15.904-2.986-65.604,7.166c-49.7,10.152,0,7.166,22.862,2.986c22.862-4.18,53.676-2.986,71.568-0.597
				c17.892,2.389,59.64,4.777,76.538,0c16.898-4.777,39.76-4.18,62.622-0.597c22.862,3.583,68.586,12.541,99.4,5.076
				c30.814-7.465,87.472-11.645,101.388-8.659c13.916,2.986,52.377,8.125,68.586,11.546c16.209,3.421,28.826,2.787,28.826,2.787
				L853.232,348.199z"/>
			
				<linearGradient id="SVGID_00000181773078208894788010000002417342465579051949_" gradientUnits="userSpaceOnUse" x1="461.3331" y1="464.1223" x2="-326.6663" y2="464.1223">
				<stop  offset="0" style="stop-color:#BF360C"/>
				<stop  offset="1" style="stop-color:#FBC02D"/>
			</linearGradient>
			<path style="fill:url(#SVGID_00000181773078208894788010000002417342465579051949_);" d="M29.051,445.922
				c45.724-25.679,48.706-28.665,85.484-30.456c36.778-1.792,17.892,3.583,58.646,0s63.616,9.178,89.46,15.04
				c25.844,5.862,47.712,2.876,73.556,9.445c25.844,6.569,57.652,23.29,79.52,22.693c21.868-0.597,64.61,22.096,64.61,22.096
				L13.147,513.403L29.051,445.922z"/>
			<path style="fill:#3E2723;" d="M-57.902,438.755c47.712-24.484,93.416,13.328,123.236,16.911s80.324,1.065,134,8.231
				c53.676,7.166,54.881-15.587,134.401-1.852c79.52,13.735,128.07,24.487,180.932,15.621c39.333-6.597,104.835,28.237,132.667,36
				c27.832,7.763,114.817-3.846,114.817-3.846v37.025H-64.86L-57.902,438.755z"/>
			<path style="fill:#3E2723;" d="M66.009,448.19c0.213,0.443,0.335,0.695,0.335,0.695s0.46,1.017,1.062,2.549
				c0.592,1.534,1.228,3.593,1.637,5.659c0.23,1.33,0.372,2.657,0.421,3.847h24.402c0.009-0.152,0.019-0.309,0.032-0.474
				c0.086-1.476,0.292-3.443,0.576-5.41c0.309-1.965,0.697-3.928,1.055-5.396c0.161-0.736,0.343-1.344,0.449-1.773
				c0.112-0.428,0.176-0.673,0.176-0.673s0.072-0.244,0.197-0.67c0.132-0.426,0.29-1.038,0.535-1.767
				c0.456-1.461,1.154-3.401,1.929-5.333c0.799-1.928,1.677-3.847,2.401-5.276c0.345-0.718,0.679-1.307,0.891-1.724
				c0.219-0.416,0.344-0.654,0.344-0.654s-0.158,0.23-0.435,0.634c-0.27,0.405-0.687,0.977-1.133,1.675
				c-0.925,1.39-2.074,3.265-3.149,5.158c-1.051,1.897-2.028,3.812-2.696,5.261c-0.246,0.506-0.439,0.952-0.6,1.322
				c0.196-1.013,0.445-2.16,0.723-3.309c0.421-1.66,0.902-3.317,1.313-4.555c0.193-0.621,0.389-1.133,0.509-1.495
				c0.126-0.361,0.198-0.567,0.198-0.567s-0.106,0.201-0.291,0.552c-0.18,0.352-0.461,0.852-0.757,1.459
				c-0.617,1.21-1.374,2.836-2.074,4.474c-0.682,1.64-1.307,3.291-1.726,4.536c-0.223,0.621-0.372,1.143-0.494,1.507
				c-0.117,0.364-0.183,0.573-0.183,0.573s-0.061,0.209-0.167,0.574c-0.101,0.366-0.27,0.887-0.43,1.516
				c-0.345,1.256-0.739,2.938-1.073,4.628c-0.068,0.364-0.132,0.728-0.194,1.088c-0.028-0.347-0.054-0.699-0.077-1.051
				c-0.074-1.44-0.092-2.884-0.058-3.968c0.005-0.542,0.042-0.993,0.053-1.31c0.015-0.316,0.024-0.497,0.024-0.497
				s0.014-0.181,0.039-0.497c0.03-0.316,0.05-0.769,0.115-1.311c0.105-1.085,0.308-2.531,0.568-3.976
				c0.277-1.443,0.611-2.886,0.91-3.965c0.137-0.541,0.285-0.987,0.372-1.302c0.093-0.315,0.146-0.494,0.146-0.494
				s-0.087,0.175-0.24,0.481c-0.148,0.307-0.381,0.742-0.622,1.27c-0.505,1.054-1.117,2.47-1.675,3.898
				c-0.54,1.429-1.026,2.869-1.343,3.954c-0.171,0.542-0.28,0.997-0.371,1.314c-0.087,0.318-0.137,0.499-0.137,0.499
				s-0.044,0.182-0.122,0.5c-0.073,0.319-0.199,0.773-0.31,1.322c-0.12,0.534-0.245,1.158-0.366,1.827
				c0.107-1.445,0.24-2.832,0.375-3.926c0.181-1.371,0.302-2.285,0.302-2.285s0.149-0.913,0.374-2.282
				c0.236-1.369,0.609-3.192,1.035-5.013c0.442-1.819,0.937-3.636,1.352-4.994c0.427-1.358,0.712-2.263,0.712-2.263
				s-0.422,0.887-1.054,2.217c-0.622,1.332-1.393,3.119-2.114,4.916c-0.705,1.798-1.359,3.606-1.806,4.968
				c-0.436,1.364-0.726,2.273-0.726,2.273s-0.111,0.388-0.297,1.034c-0.016-0.583-0.015-1.076-0.008-1.446
				c0.009-0.479,0.015-0.753,0.015-0.753s0.014-0.274,0.039-0.753c0.009-0.24,0.033-0.53,0.064-0.863
				c0.026-0.334,0.062-0.71,0.118-1.119c0.091-0.82,0.265-1.774,0.485-2.794c0.237-1.019,0.55-2.101,0.934-3.176
				c0.401-1.072,0.869-2.137,1.385-3.124c0.533-0.982,1.073-1.894,1.618-2.656c0.258-0.385,0.517-0.732,0.757-1.037
				c0.232-0.307,0.44-0.574,0.628-0.789c0.365-0.433,0.574-0.681,0.574-0.681s-0.24,0.237-0.659,0.653
				c-0.216,0.206-0.457,0.463-0.728,0.76c-0.279,0.295-0.583,0.631-0.891,1.005c-0.645,0.741-1.304,1.633-1.969,2.6
				c-0.647,0.972-1.258,2.028-1.803,3.098c-0.528,1.073-0.986,2.159-1.36,3.185c-0.282,0.813-0.526,1.584-0.716,2.283
				c0.063-1.728,0.202-3.919,0.467-6.113c0.331-2.36,0.83-4.716,1.417-6.462c0.067-0.219,0.131-0.429,0.192-0.629
				c0.077-0.198,0.15-0.385,0.219-0.561c0.138-0.353,0.258-0.66,0.357-0.913c0.198-0.507,0.311-0.797,0.311-0.797
				s-0.147,0.284-0.404,0.781c-0.129,0.249-0.285,0.551-0.465,0.898c-0.09,0.174-0.185,0.358-0.286,0.553
				c-0.085,0.197-0.174,0.405-0.266,0.621c-0.795,1.726-1.577,4.07-2.192,6.434c-0.568,2.365-0.992,4.743-1.258,6.525
				c-0.26,1.782-0.433,2.969-0.433,2.969s-0.167,1.185-0.417,2.962c-0.249,1.776-0.628,4.134-1.116,6.471
				c-0.156,0.686-0.324,1.367-0.501,2.034c0.023-0.788,0.043-1.601,0.058-2.414c0.093-4.653,0.003-9.302,0.003-9.302
				s-0.079-4.65-0.342-9.292c-0.252-4.643-0.686-9.278-0.686-9.278s-0.128,4.642-0.439,9.276c-0.3,4.635-0.782,9.26-0.782,9.26
				s-0.472,4.626-1.125,9.24c-0.073,0.526-0.149,1.051-0.225,1.569c-0.022-0.352-0.045-0.706-0.072-1.06
				c-0.182-2.126-0.441-4.247-0.7-5.833c-0.113-0.794-0.253-1.453-0.329-1.915c-0.083-0.462-0.131-0.725-0.131-0.725
				s-0.055-0.263-0.151-0.724c-0.103-0.46-0.219-1.12-0.413-1.907c-0.355-1.577-0.915-3.671-1.549-5.753
				c-0.659-2.081-1.391-4.15-2.005-5.692c-0.29-0.773-0.577-1.411-0.757-1.861c-0.186-0.448-0.292-0.704-0.292-0.704
				s0.072,0.26,0.198,0.716c0.119,0.457,0.32,1.105,0.506,1.889c0.406,1.564,0.859,3.655,1.237,5.749
				c0.353,2.096,0.631,4.193,0.773,5.767c0.088,0.786,0.116,1.443,0.157,1.902c0.034,0.459,0.054,0.721,0.054,0.721
				s0.012,0.263,0.033,0.722c0.014,0.459,0.066,1.115,0.073,1.902c0.047,1.574,0.023,3.671-0.077,5.765
				c-0.005,0.085-0.011,0.169-0.016,0.253c-0.636-1.704-1.377-3.319-2.038-4.57c-0.824-1.538-1.428-2.549-1.428-2.549
				s-0.158-0.251-0.434-0.691c-0.285-0.437-0.649-1.072-1.172-1.812c-0.987-1.495-2.444-3.448-3.972-5.375
				c-1.555-1.92-3.184-3.813-4.447-5.219c-1.271-1.402-2.119-2.337-2.119-2.337s0.721,0.972,1.802,2.429
				c1.072,1.459,2.443,3.419,3.731,5.394c1.262,1.981,2.443,3.975,3.218,5.489C65.513,447.11,65.786,447.749,66.009,448.19z"/>
			<path style="fill:#3E2723;" d="M379.789,433.63c0.861,2.069,1.865,4.881,2.743,7.723c0.839,2.856,1.55,5.738,1.975,7.92
				c0.241,1.084,0.364,2.004,0.487,2.639c0.111,0.637,0.175,1.001,0.175,1.001s0.051,0.366,0.141,1.007
				c0.078,0.642,0.242,1.551,0.346,2.654c0.264,2.198,0.469,5.141,0.547,8.077c0.014,1.144,0.008,2.285-0.014,3.383
				c-0.065-0.142-0.13-0.281-0.192-0.41c-0.204-0.454-0.407-0.819-0.533-1.08c-0.131-0.259-0.206-0.406-0.206-0.406
				s-0.08-0.145-0.219-0.399c-0.144-0.252-0.329-0.62-0.587-1.043c-0.494-0.857-1.208-1.964-1.964-3.028
				c-0.772-1.056-1.586-2.069-2.232-2.794c-0.313-0.37-0.6-0.656-0.788-0.866c-0.192-0.206-0.301-0.324-0.301-0.324
				s0.083,0.138,0.228,0.38c0.141,0.244,0.361,0.579,0.589,1.004c0.478,0.835,1.056,1.977,1.577,3.134
				c0.506,1.166,0.957,2.345,1.249,3.243c0.158,0.444,0.257,0.825,0.341,1.086c0.08,0.262,0.125,0.412,0.125,0.412
				s0.04,0.151,0.111,0.416c0.066,0.266,0.181,0.638,0.28,1.096c0.223,0.908,0.457,2.129,0.635,3.348
				c0.15,1.136,0.251,2.265,0.29,3.153h7.192c-0.046-0.205-0.095-0.438-0.126-0.702c-0.164-0.947-0.263-2.236-0.262-3.547
				c0.036-1.306,0.173-2.628,0.363-3.61c0.073-0.497,0.195-0.896,0.251-1.184c0.066-0.287,0.103-0.451,0.103-0.451
				s0.047-0.161,0.13-0.443c0.091-0.279,0.182-0.695,0.363-1.167c0.319-0.964,0.855-2.215,1.494-3.434
				c0.667-1.198,1.437-2.357,2.095-3.171c0.31-0.424,0.621-0.731,0.816-0.969c0.203-0.232,0.318-0.364,0.318-0.364
				s-0.138,0.108-0.381,0.297c-0.236,0.197-0.606,0.445-0.995,0.806c-0.813,0.685-1.814,1.701-2.741,2.805
				c-0.897,1.121-1.715,2.327-2.249,3.282c-0.288,0.467-0.471,0.886-0.626,1.167c-0.147,0.286-0.231,0.449-0.231,0.449
				s-0.074,0.168-0.204,0.461c-0.024,0.058-0.054,0.125-0.084,0.191c0.008-0.148,0.015-0.294,0.023-0.433
				c0.076-1.359,0.15-2.266,0.15-2.266s0.073-0.906,0.216-2.265c0.141-1.359,0.383-3.168,0.675-4.975
				c0.307-1.803,0.663-3.603,0.972-4.946c0.306-1.343,0.533-2.236,0.533-2.236s-0.353,0.849-0.853,2.139
				c-0.502,1.289-1.119,3.03-1.692,4.792c-0.445,1.41-0.859,2.83-1.183,4.035c-0.185-1.102-0.377-2.131-0.567-3.031
				c-0.207-1.119-0.458-2.036-0.597-2.683c-0.15-0.646-0.236-1.014-0.236-1.014s-0.098-0.366-0.27-1.006
				c-0.183-0.637-0.392-1.559-0.736-2.642c-0.631-2.179-1.614-5.037-2.717-7.839c-1.142-2.788-2.403-5.517-3.449-7.509
				c-0.496-1.009-0.982-1.813-1.287-2.392c-0.316-0.573-0.496-0.901-0.496-0.901s0.151,0.343,0.414,0.942
				C378.976,431.744,379.386,432.584,379.789,433.63z"/>
			<path style="fill:#3E2723;" d="M440.964,451.37c-0.064,0.28-0.141,0.62-0.23,1.01c-0.098,0.388-0.228,0.82-0.358,1.294
				c-0.535,1.89-1.414,4.359-2.55,6.697c-1.12,2.346-2.484,4.553-3.616,6.118c-1.12,1.574-1.953,2.55-1.953,2.55
				s-0.207,0.244-0.57,0.672c-0.35,0.438-0.911,1.012-1.561,1.714c-1.065,1.097-2.483,2.416-4.052,3.658
				c0.615-1.196,1.158-2.333,1.584-3.301c0.389-0.863,0.681-1.596,0.899-2.102c0.202-0.513,0.318-0.806,0.318-0.806
				s0.475-1.168,1.084-2.951c0.605-1.785,1.33-4.188,1.892-6.623c0.576-2.432,0.977-4.895,1.206-6.744
				c0.127-0.923,0.196-1.696,0.246-2.237c0.052-0.54,0.081-0.848,0.081-0.848s-0.063,0.303-0.173,0.835
				c-0.109,0.531-0.262,1.289-0.488,2.189c-0.428,1.804-1.09,4.185-1.917,6.502c-0.813,2.322-1.776,4.579-2.551,6.241
				c-0.78,1.661-1.361,2.733-1.361,2.733s-0.142,0.27-0.391,0.741c-0.265,0.464-0.621,1.136-1.085,1.922
				c-0.914,1.58-2.232,3.624-3.659,5.576c-0.259,0.359-0.523,0.713-0.791,1.061c0.089-0.295,0.182-0.591,0.282-0.888
				c0.725-2.186,1.635-4.399,2.265-6.1c0.317-0.85,0.573-1.567,0.741-2.076c0.174-0.505,0.262-0.799,0.262-0.799
				s0.09-0.293,0.247-0.805c0.147-0.515,0.358-1.249,0.569-2.137c0.44-1.773,0.869-4.158,1.167-6.543
				c0.299-2.386,0.489-4.77,0.615-6.558c0.12-1.787,0.201-2.979,0.201-2.979s-0.215,1.174-0.538,2.935
				c-0.328,1.759-0.787,4.1-1.348,6.404c-0.561,2.305-1.242,4.564-1.855,6.209c-0.298,0.826-0.579,1.499-0.773,1.969
				c-0.203,0.466-0.32,0.733-0.32,0.733s-0.115,0.267-0.335,0.727c-0.213,0.462-0.536,1.118-0.937,1.906
				c-0.498,0.984-1.135,2.168-1.797,3.463c0.116-0.847,0.247-1.638,0.38-2.334c0.171-0.893,0.342-1.632,0.462-2.15
				c0.131-0.519,0.205-0.815,0.205-0.815s0.299-1.184,0.81-2.978c0.501-1.795,1.219-4.206,1.696-6.69
				c0.245-1.239,0.391-2.502,0.468-3.684c0.002-0.595,0.048-1.165,0.001-1.709c-0.014-0.271-0.027-0.534-0.04-0.788
				c-0.032-0.253-0.063-0.497-0.093-0.732c-0.047-0.47-0.142-0.892-0.228-1.264c-0.041-0.186-0.079-0.36-0.115-0.521
				c-0.049-0.158-0.095-0.302-0.136-0.433c-0.166-0.519-0.261-0.816-0.261-0.816s0.062,0.305,0.17,0.838
				c0.026,0.133,0.055,0.28,0.087,0.44c0.017,0.162,0.036,0.338,0.056,0.526c0.044,0.374,0.092,0.794,0.087,1.258
				c0.004,0.23,0.008,0.47,0.012,0.718c-0.015,0.248-0.03,0.504-0.045,0.768c-0.012,0.526-0.118,1.077-0.182,1.644
				c-0.2,1.132-0.471,2.324-0.839,3.494c-0.722,2.343-1.681,4.621-2.377,6.355c-0.706,1.731-1.149,2.919-1.149,2.919
				s-0.014,0.039-0.035,0.095l-0.341-2.441c0,0-0.187-1.338-0.468-3.346c-0.27-2.006-0.68-4.69-0.997-7.35
				c-0.324-2.661-0.396-5.341-0.139-7.34c0.114-1,0.309-1.819,0.447-2.392c0.164-0.567,0.258-0.891,0.258-0.891
				s-0.126,0.314-0.347,0.863c-0.196,0.558-0.475,1.363-0.693,2.362c-0.464,1.993-0.668,4.743-0.612,7.466
				c0.049,2.726,0.187,5.415,0.254,7.444c0.077,2.026,0.129,3.376,0.129,3.376l0.356,9.326c-1.186-3.11-2.438-6.082-3.207-8.359
				c-0.401-1.16-0.69-2.134-0.87-2.822c-0.198-0.684-0.28-1.082-0.28-1.082s-0.091-0.397-0.249-1.092
				c-0.086-0.347-0.147-0.776-0.241-1.264c-0.098-0.488-0.181-1.044-0.258-1.652c-0.18-1.214-0.287-2.645-0.35-4.185
				c-0.029-1.539-0.021-3.19,0.141-4.834c0.252-3.298,1.025-6.548,1.78-8.928c0.173-0.602,0.386-1.134,0.552-1.614
				c0.165-0.482,0.33-0.893,0.473-1.23c0.278-0.677,0.437-1.064,0.437-1.064s-0.19,0.373-0.522,1.025
				c-0.17,0.325-0.369,0.723-0.573,1.191c-0.206,0.467-0.464,0.986-0.686,1.575c-0.954,2.328-2.007,5.554-2.54,8.905
				c-0.303,1.669-0.45,3.363-0.55,4.957c-0.065,1.594-0.075,3.091,0.009,4.37c0.028,0.641,0.068,1.228,0.128,1.747
				c0.056,0.519,0.085,0.975,0.144,1.345c0.107,0.743,0.168,1.168,0.168,1.168s0.053,0.427,0.202,1.164
				c0.131,0.742,0.353,1.795,0.671,3.037c0.621,2.49,1.683,5.706,2.595,8.864c0.296,1.016,0.556,2.026,0.78,3.01
				c-0.598-0.997-1.217-2.049-1.823-3.113c-1.367-2.392-2.67-4.828-3.613-6.669c-0.942-1.836-1.492-3.077-1.492-3.077
				s-0.137-0.311-0.376-0.856c-0.231-0.547-0.558-1.33-0.889-2.286c-0.675-1.91-1.314-4.535-1.323-7.27
				c-0.054-2.729,0.358-5.485,0.71-7.534c0.362-2.052,0.64-3.416,0.64-3.416s-0.409,1.329-0.972,3.342
				c-0.552,2.013-1.242,4.736-1.466,7.573c-0.115,1.414-0.118,2.854,0.025,4.196c0.134,1.341,0.372,2.579,0.622,3.623
				c0.251,1.045,0.512,1.898,0.698,2.493c0.193,0.592,0.304,0.93,0.304,0.93s0.448,1.354,1.224,3.317
				c0.771,1.959,1.846,4.549,2.995,7.113c1.145,2.565,2.369,5.098,3.317,6.985c0.558,1.109,1.012,1.985,1.295,2.526h7.829
				c0.462-0.625,1.084-1.306,1.791-1.967c1.003-0.896,2.147-1.729,3.029-2.342c0.895-0.611,1.492-1.018,1.492-1.018
				s0.607-0.413,1.519-1.032c0.911-0.626,2.126-1.496,3.257-2.474c1.115-1.004,2.129-2.111,2.712-3.062
				c0.078-0.114,0.153-0.223,0.224-0.327c0.058-0.112,0.113-0.219,0.165-0.319c0.103-0.199,0.192-0.372,0.266-0.515
				c0.146-0.283,0.229-0.445,0.229-0.445s-0.112,0.144-0.309,0.396c-0.097,0.125-0.216,0.276-0.352,0.45
				c-0.067,0.086-0.139,0.178-0.215,0.275c-0.088,0.087-0.18,0.178-0.276,0.274c-0.725,0.8-1.878,1.657-3.086,2.392
				c-1.232,0.714-2.526,1.315-3.516,1.752c-0.996,0.433-1.661,0.721-1.661,0.721s-0.234,0.102-0.626,0.273
				c0.207-0.182,0.416-0.364,0.624-0.555c2.04-1.826,3.848-3.867,5.103-5.462c0.611-0.813,1.133-1.475,1.454-1.972
				c0.333-0.487,0.524-0.766,0.524-0.766s0.766-1.114,1.758-2.868c1.005-1.745,2.173-4.166,3.066-6.678
				c0.912-2.506,1.538-5.091,1.878-7.042c0.082-0.489,0.166-0.934,0.224-1.332c0.048-0.399,0.091-0.747,0.125-1.033
				c0.069-0.571,0.109-0.898,0.109-0.898S441.092,450.809,440.964,451.37z"/>
			<path style="fill:#3E2723;" d="M224.5,444.36c-0.053,0.231-0.117,0.512-0.19,0.835c-0.081,0.32-0.188,0.678-0.296,1.07
				c-0.442,1.563-1.168,3.603-2.108,5.536c-0.925,1.94-2.053,3.763-2.989,5.057c-0.926,1.301-1.614,2.108-1.614,2.108
				s-0.171,0.202-0.471,0.556c-0.289,0.362-0.753,0.836-1.29,1.417c-0.88,0.907-2.052,1.997-3.349,3.023
				c0.508-0.989,0.957-1.928,1.309-2.728c0.321-0.714,0.563-1.32,0.743-1.738c0.167-0.424,0.262-0.666,0.262-0.666
				s0.393-0.965,0.896-2.44c0.5-1.476,1.1-3.462,1.564-5.475c0.476-2.011,0.807-4.046,0.997-5.575
				c0.105-0.763,0.162-1.402,0.204-1.849c0.043-0.446,0.067-0.701,0.067-0.701s-0.052,0.251-0.144,0.69
				c-0.09,0.439-0.216,1.066-0.404,1.81c-0.354,1.492-0.901,3.459-1.584,5.375c-0.672,1.919-1.468,3.785-2.109,5.159
				c-0.645,1.373-1.125,2.259-1.125,2.259s-0.117,0.223-0.323,0.613c-0.219,0.383-0.514,0.939-0.897,1.589
				c-0.755,1.306-1.845,2.995-3.025,4.609c-0.214,0.297-0.433,0.59-0.654,0.877c0.074-0.244,0.151-0.489,0.233-0.734
				c0.6-1.807,1.352-3.636,1.872-5.042c0.262-0.703,0.474-1.295,0.612-1.716c0.144-0.417,0.217-0.66,0.217-0.66
				s0.074-0.242,0.204-0.666c0.122-0.425,0.296-1.032,0.47-1.767c0.363-1.466,0.718-3.437,0.965-5.408
				c0.248-1.972,0.404-3.943,0.508-5.421c0.1-1.477,0.166-2.462,0.166-2.462s-0.178,0.971-0.445,2.426
				c-0.271,1.454-0.65,3.389-1.114,5.294c-0.463,1.905-1.026,3.773-1.534,5.132c-0.247,0.683-0.479,1.239-0.639,1.628
				c-0.168,0.385-0.264,0.606-0.264,0.606s-0.095,0.22-0.277,0.601c-0.176,0.382-0.443,0.924-0.775,1.576
				c-0.411,0.814-0.938,1.792-1.485,2.862c0.096-0.7,0.204-1.354,0.314-1.93c0.141-0.738,0.283-1.349,0.382-1.777
				c0.108-0.429,0.17-0.674,0.17-0.674s0.247-0.979,0.67-2.461c0.414-1.484,1.007-3.477,1.402-5.53
				c0.203-1.024,0.323-2.068,0.387-3.045c0.002-0.492,0.039-0.963,0.001-1.413c-0.011-0.224-0.023-0.441-0.033-0.651
				c-0.027-0.209-0.052-0.411-0.077-0.605c-0.038-0.388-0.118-0.737-0.188-1.045c-0.034-0.154-0.066-0.298-0.095-0.431
				c-0.041-0.13-0.079-0.25-0.112-0.358c-0.137-0.429-0.216-0.674-0.216-0.674s0.051,0.252,0.141,0.693
				c0.022,0.11,0.046,0.231,0.072,0.363c0.014,0.134,0.03,0.279,0.047,0.435c0.036,0.309,0.076,0.657,0.072,1.04
				c0.003,0.19,0.007,0.389,0.01,0.594c-0.012,0.205-0.024,0.417-0.037,0.635c-0.01,0.435-0.098,0.89-0.15,1.359
				c-0.165,0.936-0.389,1.921-0.694,2.888c-0.597,1.937-1.389,3.82-1.964,5.253c-0.583,1.431-0.95,2.413-0.95,2.413
				s-0.012,0.032-0.029,0.079l-0.282-2.018c0,0-0.155-1.106-0.387-2.766c-0.223-1.658-0.562-3.876-0.824-6.075
				c-0.268-2.2-0.327-4.415-0.115-6.067c0.094-0.826,0.255-1.503,0.369-1.977c0.136-0.469,0.213-0.737,0.213-0.737
				s-0.104,0.259-0.287,0.713c-0.162,0.462-0.393,1.127-0.573,1.953c-0.384,1.647-0.552,3.92-0.506,6.171
				c0.041,2.254,0.154,4.476,0.21,6.153c0.064,1.674,0.106,2.791,0.106,2.791l0.294,7.709c-0.981-2.571-2.015-5.027-2.651-6.91
				c-0.331-0.959-0.57-1.764-0.719-2.332c-0.163-0.565-0.232-0.895-0.232-0.895s-0.075-0.328-0.206-0.903
				c-0.071-0.287-0.121-0.641-0.199-1.045c-0.081-0.404-0.149-0.863-0.213-1.366c-0.149-1.004-0.237-2.187-0.29-3.459
				c-0.024-1.272-0.017-2.637,0.117-3.996c0.208-2.726,0.847-5.413,1.472-7.38c0.143-0.497,0.319-0.937,0.457-1.334
				c0.136-0.398,0.273-0.738,0.391-1.017c0.23-0.56,0.361-0.879,0.361-0.879s-0.157,0.308-0.432,0.848
				c-0.141,0.269-0.305,0.598-0.474,0.985c-0.17,0.386-0.383,0.815-0.567,1.302c-0.788,1.924-1.659,4.591-2.1,7.361
				c-0.25,1.38-0.372,2.78-0.454,4.097c-0.054,1.318-0.062,2.555,0.008,3.613c0.023,0.53,0.056,1.015,0.106,1.444
				c0.046,0.429,0.07,0.806,0.119,1.112c0.088,0.615,0.139,0.966,0.139,0.966s0.044,0.353,0.167,0.962
				c0.108,0.613,0.291,1.484,0.555,2.511c0.514,2.058,1.391,4.716,2.145,7.327c0.244,0.84,0.459,1.675,0.644,2.488
				c-0.495-0.824-1.006-1.693-1.507-2.573c-1.13-1.977-2.207-3.991-2.986-5.513c-0.779-1.517-1.233-2.544-1.233-2.544
				s-0.113-0.257-0.311-0.707c-0.191-0.452-0.461-1.099-0.735-1.89c-0.558-1.579-1.086-3.749-1.094-6.009
				c-0.045-2.256,0.296-4.534,0.587-6.227c0.299-1.696,0.529-2.824,0.529-2.824s-0.338,1.098-0.804,2.762
				c-0.456,1.664-1.027,3.915-1.212,6.26c-0.095,1.168-0.097,2.36,0.021,3.468c0.111,1.109,0.307,2.132,0.514,2.995
				c0.207,0.864,0.424,1.569,0.577,2.061c0.16,0.489,0.251,0.769,0.251,0.769s0.37,1.119,1.011,2.742
				c0.638,1.619,1.526,3.76,2.476,5.879c0.946,2.121,1.958,4.214,2.742,5.774c0.461,0.916,0.837,1.641,1.071,2.088h6.472
				c0.382-0.517,0.896-1.08,1.48-1.626c0.829-0.741,1.774-1.43,2.504-1.936c0.74-0.505,1.233-0.842,1.233-0.842
				s0.502-0.341,1.255-0.853c0.753-0.518,1.757-1.236,2.692-2.045c0.921-0.83,1.76-1.745,2.242-2.531
				c0.064-0.094,0.126-0.184,0.185-0.27c0.048-0.093,0.094-0.181,0.137-0.264c0.085-0.164,0.159-0.308,0.22-0.426
				c0.12-0.234,0.189-0.368,0.189-0.368s-0.093,0.119-0.255,0.328c-0.081,0.103-0.178,0.228-0.291,0.372
				c-0.056,0.071-0.115,0.147-0.177,0.227c-0.072,0.072-0.148,0.148-0.228,0.227c-0.6,0.661-1.553,1.37-2.551,1.978
				c-1.018,0.59-2.088,1.087-2.906,1.448c-0.824,0.358-1.373,0.596-1.373,0.596s-0.194,0.085-0.517,0.226
				c0.171-0.15,0.344-0.301,0.516-0.459c1.686-1.509,3.181-3.196,4.218-4.515c0.505-0.672,0.937-1.219,1.202-1.63
				c0.276-0.403,0.433-0.633,0.433-0.633s0.633-0.921,1.453-2.37c0.831-1.443,1.796-3.444,2.535-5.52
				c0.754-2.071,1.271-4.208,1.552-5.82c0.068-0.404,0.138-0.772,0.185-1.101c0.04-0.33,0.075-0.617,0.104-0.854
				c0.057-0.472,0.09-0.742,0.09-0.742S224.605,443.896,224.5,444.36z"/>
		</g>
	</g>
	<g>
		<path style="fill:#3E2723;" d="M298.602,449.071c-6.284,8.476-2.768,14.827-2.768,14.827h42.255c0,0,3.105-6.745-4.042-10.48
			c-4.687-2.449-13.495-2.846-21.86-1.406l1.878-15.255c0,0,3.146-2.61,14.106-5.219c10.96-2.61,21.342-22.965,10.41-36.535
			c-10.932-13.57-9.366-9.395-7.8-20.877c1.566-11.482-4.175-6.785-23.487-27.662c-19.311-20.877-2.088-14.614-5.741-23.487h-65.241
			c0,0-9.395,4.175-25.052,25.574c-15.658,21.399-28.596,45.71-38.622,53.236c-16.954,12.726-12.918,31.166-12.918,31.166
			s-3.985,16.851-11.292,19.46c0,0-25.89-6.315-25.574,11.482h43.842c0,0,1.767-6.263-0.32-12.526c0,0,8.145-8.748,14.81-18.311
			c12.836-18.417,12.852,14.658,44.689-16.658c31.837-31.316,21.921-9.395,40.71-12.004c18.789-2.61,29.75-12.004,28.706-2.088
			c-1.044,9.917-14.548,15.658-8.057,19.311c6.491,3.654,13.995,9.395,13.995,9.395L298.602,449.071z"/>
		<path style="fill:#3E2723;" d="M236.314,322.978c0-12.207,17.177-11.048,9.641-23.654c-7.536-12.606-7.599-43.468-3.756-51.292
			c3.843-7.824,65.575-27.048,78.181-25.743c0,0,6.278,12.268,3.235,24.439c0,0-29.993,9.563-30.427,14.344
			c-0.435,4.781,9.128-3.043,16.518,3.043c7.389,6.085,21.156-9.117,25.646-5.216c0,0,10.432-19.126,6.086-23.907
			c-4.347-4.781-9.998-20.865-5.216-22.169c4.781-1.304,7.636-2.45,8.259-6.085c0.182-1.065,7.375,2.695,13.04,6.52
			c6.93,4.679-5.216,7.824-6.086,14.779c-0.869,6.955-3.477,34.774-6.52,39.556c0,0,7.389,7.824,7.389,17.387
			c0,0-18.256,11.302-49.988,6.955c0,0,2.114,18.982-0.762,31.043"/>
		<path style="fill:#3E2723;" d="M314.922,224.995c15.648-0.435,26.515-9.128,26.515-9.128l6.955,5.651
			c0,0-21.734,13.91-30.862,15.214"/>
		<path style="fill:#3E2723;" d="M298.75,229.821c-9.407-11.373-13.571-18.62-13.513-19.488c0.058-0.867,2.756-15.209-13.243-19.18
			c0,0,0.252-15.6,16.789-7.884l8.134-4.395c0,0-11.894-13.281-21.667-6.091c-9.773,7.19-8.982,21.474-13.917,21.435
			c-4.935-0.038-3.412-14.168,7.399-13.359l5.084-6.899c0,0-15.991-9.89-18.902,3.275c-2.91,13.166-1.252,18.794-1.252,18.794
			s-2.429,5.937-7.479,7.633c-5.05,1.696-4.067,4.376-4.067,4.376l9.523,5.281c0,0-4.53,11.315-3.103,11.701
			c1.427,0.385,7.479,1.079,5.783,9.098c-1.696,8.019,8.289,15.074,26.312,10.466C298.654,239.98,298.75,229.821,298.75,229.821z"/>
		<g>
			<g>
				<path style="fill:#3E2723;" d="M371.297,234.682c0,0-15.677-17.479-36.157-32.025l-4.278,6.023c0,0,23.17,22.731,34.215,32.11
					L371.297,234.682z"/>
				<path style="fill:#3E2723;" d="M335.838,206.777c0,0-89.795-73.018-130.762-86.675c0,0,103.255,68.168,127.536,90.288
					L335.838,206.777z"/>
				<path style="fill:#3E2723;" d="M338.321,201.221c0,0-5.629,4.785-7.791,11.754l-3.175-1.419c0,0-0.107-5.443,9.148-13.369
					L338.321,201.221z"/>
			</g>
		</g>
	</g>
</g>
</svg>
